<?xml version="1.0" encoding="UTF-8"?>
<svg id="Layer_2" data-name="Layer 2" xmlns="http://www.w3.org/2000/svg" viewBox="0 0 182.22 179.44">
  <defs>
    <style>
      .cls-1 {
        fill: #c2b59b;
      }

      .cls-1, .cls-2, .cls-3, .cls-4, .cls-5 {
        stroke-miterlimit: 10;
      }

      .cls-1, .cls-2, .cls-4 {
        stroke: #231f20;
      }

      .cls-2 {
        fill: #fff;
        stroke-width: 3px;
      }

      .cls-3 {
        fill: none;
      }

      .cls-3, .cls-5 {
        stroke: #2e3192;
      }

      .cls-4 {
        fill: #2b3990;
      }

      .cls-5 {
        fill: #fff200;
      }
    </style>
  </defs>
  <g id="Layer_1-2" data-name="Layer 1">
    <rect class="cls-2" x="1.5" y="1.5" width="179.22" height="176.44" rx="19.03" ry="19.03"/>
    <path class="cls-1" d="M87.12,167.03l-14.65-16.05c-.08-.08-.16-.16-.25-.22-.59-.4-3.24-2.45-3.97-7.28-.52-3.5-.38-6.77-.2-8.66.08-.91-.64-1.69-1.55-1.69h0c-.59,0-1.14.34-1.4.87l-11.11,22.72c-.27.56-.86.9-1.48.87l-22.9-1.22c-.9-.05-1.58-.86-1.46-1.75l3.71-28.66c.1-.74-.35-1.45-1.06-1.68l-6.81-2.21c-1.01-.33-2.04.42-2.04,1.48v44.52c0,.86.7,1.56,1.56,1.56h1.77c.76,0,1.4-.54,1.53-1.29l.36-2.03c.13-.76.8-1.3,1.56-1.29l52.14,1.05c.47,0,.91.23,1.2.61l1.8,2.34c.29.38.75.61,1.23.61h.88c1.35,0,2.06-1.61,1.15-2.61Z"/>
    <path class="cls-4" d="M118.1,13.53s1.09,29.7-5.45,51.49-13.35,42.77-13.35,42.77l-17.71-18.07s14.71-12.98,17.16-33.69,0-35.14,0-35.14c0,0-.48-3.81,1.12-5.99s4.6-1.36,4.6-1.36h13.62Z"/>
    <path class="cls-4" d="M78.46,117.97c.73-2.48-.79-5.06-3.32-5.61-7.19-1.58-21.22-4.37-31.15-4.57-8.49-.17-15.75-.13-20.12-.08-2.44.03-4.4,2.02-4.4,4.46v8.81c0,1.47.72,2.84,1.93,3.67l4.98,3.44c.65.45,1.41.72,2.19.78l42.06,3.18c2.1.16,4.02-1.17,4.61-3.19l3.2-10.89Z"/>
    <path class="cls-1" d="M40.43,80.57l44.86,4.27c.43.04.82.26,1.08.6l17.39,22.51c.43.56.43,1.33,0,1.89-1.96,2.59-7.6,9.78-12.66,13.75-5.55,4.36-15,10.01-17.02,11.21-.26.15-.54.22-.84.21-2.62-.11-16.09-.72-25.16-2.43,0,0-16.95-3.49-23.67-6.89-.53-.27-.85-.8-.85-1.39v-4.82c0-.88.73-1.59,1.61-1.56l43.97,1.56c.3.01.6-.07.85-.22l15.03-8.97c.79-.47,1-1.51.46-2.25l-7.29-10.03c-.27-.37-.68-.6-1.13-.64l-39.52-3.18c-.29-.02-.56-.12-.8-.3-.78-.58-2.35-2.27-2.56-6.54-.24-5.03,4.57-6.48,5.74-6.76.16-.04.33-.05.49-.03Z"/>
    <polygon class="cls-5" points="87.59 130.13 142.62 96.08 154.07 97.99 98.22 132.05 87.59 130.13"/>
    <polygon class="cls-5" points="87.59 130.13 97.13 147.57 105.84 147.57 98.22 132.05 87.59 130.13"/>
    <polygon class="cls-5" points="105.84 147.57 163.33 114.07 154.07 97.99 98.22 132.05 105.84 147.57"/>
    <polygon class="cls-5" points="101.76 133.4 107.48 143.48 159.51 112.7 154.07 102.89 101.76 133.4"/>
    <polygon class="cls-5" points="108.02 132.05 111.29 138.85 115.92 135.04 111.97 130.13 108.02 132.05"/>
    <polygon class="cls-5" points="120.83 124.68 123.82 128.77 139.35 119.86 136.36 114.07 120.83 124.68"/>
    <polygon class="cls-3" points="145.62 110.52 148.07 115.97 154.07 113.24 149.84 107.79 145.62 110.52"/>
  </g>
</svg>