<?xml version="1.0" encoding="iso-8859-1"?>
<!-- Uploaded to: SVG Repo, www.svgrepo.com, Generator: SVG Repo Mixer Tools -->
<svg fill="#000000" height="800px" width="800px" version="1.1" id="Layer_1" xmlns="http://www.w3.org/2000/svg" xmlns:xlink="http://www.w3.org/1999/xlink" 
	 viewBox="0 0 512 512" xml:space="preserve">
<g>
	<g>
		<path d="M50.144,340.243C22.493,340.243,0,362.737,0,390.387v33.429c0,27.651,22.493,50.144,50.144,50.144h113.659V340.243H50.144
			z"/>
	</g>
</g>
<g>
	<g>
		<path d="M492.522,340.243h-295.29V473.96h295.29c9.228,0,16.715-7.481,16.715-16.715V356.958
			C509.237,347.725,501.75,340.243,492.522,340.243z M475.807,440.531h-33.429v-66.858h33.429V440.531z"/>
	</g>
</g>
<g>
	<g>
		<path d="M489.442,162.07c-19.854-25.73-19.854-69.215,0-94.944c6.094-7.895,4.624-19.234-3.265-25.323
			c-7.889-6.083-19.228-4.641-25.323,3.265c-30.077,38.989-30.077,100.07,0,139.059c19.849,25.73,19.849,69.214,0,94.944
			c-6.094,7.895-4.63,19.234,3.265,25.323c7.92,6.111,19.257,4.59,25.323-3.265C519.519,262.14,519.519,201.059,489.442,162.07z"/>
	</g>
</g>
<g>
	<g>
		<path d="M422.585,162.07c-19.854-25.73-19.854-69.214,0-94.944c6.093-7.895,4.63-19.234-3.265-25.323
			c-7.895-6.094-19.24-4.63-25.323,3.265c-30.077,38.989-30.077,100.07,0,139.059c19.854,25.73,19.854,69.214,0,94.944
			c-6.094,7.895-4.63,19.234,3.265,25.323c7.933,6.12,19.28,4.573,25.323-3.265C452.662,262.14,452.662,201.059,422.585,162.07z"/>
	</g>
</g>
</svg>